<?xml version="1.0" encoding="UTF-8" standalone="no"?>
<!-- Created with Inkscape (http://www.inkscape.org/) -->

<svg
   xmlns:dc="http://purl.org/dc/elements/1.1/"
   xmlns:cc="http://creativecommons.org/ns#"
   xmlns:rdf="http://www.w3.org/1999/02/22-rdf-syntax-ns#"
   xmlns:svg="http://www.w3.org/2000/svg"
   xmlns="http://www.w3.org/2000/svg"
   xmlns:sodipodi="http://sodipodi.sourceforge.net/DTD/sodipodi-0.dtd"
   xmlns:inkscape="http://www.inkscape.org/namespaces/inkscape"
   width="512"
   height="512"
   id="svg2"
   version="1.1"
   inkscape:version="0.48.2 r9819"
   sodipodi:docname="smile-grey.svg"
   inkscape:export-filename="C:\Documents and Settings\zokum\My Documents\boxtracker\smile-happy.png"
   inkscape:export-xdpi="90"
   inkscape:export-ydpi="90">
  <defs
     id="defs4">
    <inkscape:path-effect
       effect="spiro"
       id="path-effect3015"
       is_visible="true" />
    <inkscape:path-effect
       effect="spiro"
       id="path-effect3005"
       is_visible="true" />
  </defs>
  <sodipodi:namedview
     id="base"
     pagecolor="#ffffff"
     bordercolor="#666666"
     borderopacity="1.0"
     inkscape:pageopacity="0.0"
     inkscape:pageshadow="2"
     inkscape:zoom="1"
     inkscape:cx="322.29796"
     inkscape:cy="969.48302"
     inkscape:document-units="px"
     inkscape:current-layer="layer1"
     showgrid="false"
     inkscape:window-width="1280"
     inkscape:window-height="977"
     inkscape:window-x="-4"
     inkscape:window-y="-4"
     inkscape:window-maximized="1" />
  <metadata
     id="metadata7">
    <rdf:RDF>
      <cc:Work
         rdf:about="">
        <dc:format>image/svg+xml</dc:format>
        <dc:type
           rdf:resource="http://purl.org/dc/dcmitype/StillImage" />
        <dc:title></dc:title>
      </cc:Work>
    </rdf:RDF>
  </metadata>
  <g
     inkscape:label="Layer 1"
     inkscape:groupmode="layer"
     id="layer1">
    <path
       sodipodi:type="arc"
       style="fill:#666666"
       id="path2995"
       sodipodi:cx="314.54303"
       sodipodi:cy="281.46384"
       sodipodi:rx="204.88582"
       sodipodi:ry="212.71848"
       d="m 519.42885,281.46384 a 204.88582,212.71848 0 1 1 -409.77164,0 204.88582,212.71848 0 1 1 409.77164,0 z"
       transform="matrix(1.2494764,0,0,1.2034686,-137.0141,-82.370713)" />
    <path
       style="fill:#000000"
       d="m 86.645861,393.02173 c -5.75832,-5.13726 -10.545979,-9.61056 -10.639231,-9.94067 -0.09325,-0.33011 0.808333,-3.32776 2.003514,-6.66144 8.345405,-23.27756 27.182786,-48.37035 48.311296,-64.35424 30.54652,-23.10868 69.78064,-35.59639 116.01872,-36.92726 l 14.07723,-0.40519 0,20.92178 0,20.92179 -9.86722,0.44789 c -43.96946,1.9959 -81.15251,14.80199 -110.05259,37.90283 -15.59423,12.465 -27.62098,26.35133 -36.30437,41.91775 l -3.077656,5.51721 -10.469693,-9.34045 0,0 z"
       id="path3121"
       inkscape:connector-curvature="0" />
    <path
       style="fill:#000000"
       d="m 425.77153,393.02173 c 5.75832,-5.13726 10.54597,-9.61056 10.63923,-9.94067 0.0933,-0.33011 -0.80834,-3.32776 -2.00352,-6.66144 -8.3454,-23.27756 -27.18278,-48.37035 -48.31129,-64.35424 C 355.54943,288.9567 316.31531,276.46899 270.07723,275.13812 L 256,274.73293 l 0,20.92178 0,20.92179 9.86722,0.44789 c 43.96946,1.9959 81.15251,14.80199 110.05259,37.90283 15.59423,12.465 27.62098,26.35133 36.30437,41.91775 l 3.07765,5.51721 10.4697,-9.34045 0,0 z"
       id="path3121-4"
       inkscape:connector-curvature="0" />
    <rect
       style="fill:#000000"
       id="rect3251"
       width="33.088425"
       height="136.03018"
       x="-48.710751"
       y="160.9135"
       transform="matrix(0.71299507,-0.70116905,0.71299507,0.70116905,0,0)" />
    <rect
       style="fill:#000000"
       id="rect3251-5"
       width="33.088425"
       height="136.03018"
       x="-245.47279"
       y="-35.848549"
       transform="matrix(-0.71299507,-0.70116905,-0.71299507,0.70116905,0,0)" />
    <rect
       style="fill:#000000"
       id="rect3251-1"
       width="33.088425"
       height="136.03018"
       x="112.58068"
       y="322.20493"
       transform="matrix(0.71299507,-0.70116905,0.71299507,0.70116905,0,0)" />
    <rect
       style="fill:#000000"
       id="rect3251-5-7"
       width="33.088425"
       height="136.03018"
       x="-406.76422"
       y="-197.14"
       transform="matrix(-0.71299507,-0.70116905,-0.71299507,0.70116905,0,0)" />
  </g>
</svg>
