<?xml version="1.0" encoding="UTF-8" standalone="no"?>
<!-- Created with Inkscape (http://www.inkscape.org/) -->

<svg
   xmlns:dc="http://purl.org/dc/elements/1.1/"
   xmlns:cc="http://creativecommons.org/ns#"
   xmlns:rdf="http://www.w3.org/1999/02/22-rdf-syntax-ns#"
   xmlns:svg="http://www.w3.org/2000/svg"
   xmlns="http://www.w3.org/2000/svg"
   xmlns:sodipodi="http://sodipodi.sourceforge.net/DTD/sodipodi-0.dtd"
   xmlns:inkscape="http://www.inkscape.org/namespaces/inkscape"
   width="512"
   height="512"
   id="svg2"
   version="1.1"
   inkscape:version="0.48.2 r9819"
   sodipodi:docname="smile-happy.svg"
   inkscape:export-filename="C:\Documents and Settings\zokum\My Documents\boxtracker\smile-happy.png"
   inkscape:export-xdpi="90"
   inkscape:export-ydpi="90">
  <defs
     id="defs4">
    <inkscape:path-effect
       effect="spiro"
       id="path-effect3015"
       is_visible="true" />
    <inkscape:path-effect
       effect="spiro"
       id="path-effect3005"
       is_visible="true" />
  </defs>
  <sodipodi:namedview
     id="base"
     pagecolor="#ffffff"
     bordercolor="#666666"
     borderopacity="1.0"
     inkscape:pageopacity="0.0"
     inkscape:pageshadow="2"
     inkscape:zoom="0.95155578"
     inkscape:cx="322.49304"
     inkscape:cy="760.64091"
     inkscape:document-units="px"
     inkscape:current-layer="layer1"
     showgrid="false"
     inkscape:window-width="1026"
     inkscape:window-height="911"
     inkscape:window-x="179"
     inkscape:window-y="6"
     inkscape:window-maximized="0" />
  <metadata
     id="metadata7">
    <rdf:RDF>
      <cc:Work
         rdf:about="">
        <dc:format>image/svg+xml</dc:format>
        <dc:type
           rdf:resource="http://purl.org/dc/dcmitype/StillImage" />
        <dc:title></dc:title>
      </cc:Work>
    </rdf:RDF>
  </metadata>
  <g
     inkscape:label="Layer 1"
     inkscape:groupmode="layer"
     id="layer1">
    <path
       sodipodi:type="arc"
       style="fill:#ffff00"
       id="path2995"
       sodipodi:cx="314.54303"
       sodipodi:cy="281.46384"
       sodipodi:rx="204.88582"
       sodipodi:ry="212.71848"
       d="m 519.42885,281.46384 a 204.88582,212.71848 0 1 1 -409.77164,0 204.88582,212.71848 0 1 1 409.77164,0 z"
       transform="matrix(1.2494764,0,0,1.2034686,-137.0141,-82.370713)" />
    <path
       style="fill:#000000;stroke:#000000;stroke-width:1.20986843000000000px;stroke-linecap:butt;stroke-linejoin:miter;stroke-opacity:1"
       d="m 72.604935,282.50119 c 0,0 168.107175,389.82613 366.790135,0 0,0 -170.57832,0.46054 -366.790135,0 z"
       id="path3017"
       inkscape:connector-curvature="0"
       sodipodi:nodetypes="ccc" />
    <path
       style="fill:#ffffff;stroke:#000000;stroke-width:0.92202741px;stroke-linecap:butt;stroke-linejoin:miter;stroke-opacity:1"
       d="m 108.46101,306.8232 c 0,0 135.24008,281.42544 295.07797,0 0,0 -137.22808,0.33253 -295.07797,0 z"
       id="path3017-1"
       inkscape:connector-curvature="0"
       sodipodi:nodetypes="ccc" />
    <path
       sodipodi:type="arc"
       style="fill:#000000"
       id="path3039"
       sodipodi:cx="201.24937"
       sodipodi:cy="176.42825"
       sodipodi:rx="34.154591"
       sodipodi:ry="33.103683"
       d="m 235.40396,176.42825 a 34.154591,33.103683 0 1 1 -68.30918,0 34.154591,33.103683 0 1 1 68.30918,0 z"
       transform="matrix(1.4053748,0,0,1.4499897,-126.8308,-81.456967)" />
    <path
       sodipodi:type="arc"
       style="fill:#000000"
       id="path3039-7"
       sodipodi:cx="201.24937"
       sodipodi:cy="176.42825"
       sodipodi:rx="34.154591"
       sodipodi:ry="33.103683"
       d="m 235.40396,176.42825 a 34.154591,33.103683 0 1 1 -68.30918,0 34.154591,33.103683 0 1 1 68.30918,0 z"
       transform="matrix(1.4053748,0,0,1.4499897,71.169202,-81.456967)" />
  </g>
</svg>
